{"title":"Dolphin Tale.2011.Cam.Xvid- SiNiSTER","uid":6758230,"size":1473470913,"categoryP":"video","categoryS":"movies","magnet":"?xt=urn:btih:f2aa923c567aad50b60e4bdb92fb8e5e5c6f1726&amp;dn=Dolphin+Tale.2011.Cam.Xvid-+SiNiSTER&amp;tr=udp%3A%2F%2Ftracker.openbittorrent.com%3A80&amp;tr=udp%3A%2F%2Fopen.demonii.com%3A1337&amp;tr=udp%3A%2F%2Ftracker.coppersurfer.tk%3A6969&amp;tr=udp%3A%2F%2Fexodus.desync.com%3A6969","seeders":0,"leechers":0,"uploader":"wolfinvi","files":9,"time":1319069465,"description":"***********************************************\n                   Dolphin Tale.2011.Cam.Xvid- SiNiSTER\n*******************************************************************************\n\n-------------------------------------------------------------------------------\n                              General Information\n-------------------------------------------------------------------------------\n &lt;a href=&quot;\nhttp://www.pix2links.com/image/LRwaG.jpg&quot; rel=&quot;nofollow&quot; target=&quot;_NEW&quot;&gt;\nhttp://www.pix2links.com/image/LRwaG.jpg&lt;/a&gt;\n\n\nFormat                           : AVI\nFormat/Info                      : Audio Video Interleave\nFile size                        : 1.37 GiB\nDuration                         : 1h 43mn\nOverall bit rate                 : 1 896 Kbps\nWriting application              : VirtualDubMod 1.5.10.2 (build 2540/release)\nWriting library                  : VirtualDub build 32839/release\n\nVideo\nID                               : 0\nFormat                           : MPEG-4 Visual\nFormat profile                   : Advanced Simple@L5\nFormat settings, BVOP            : Yes\nFormat settings, QPel            : Yes\nFormat settings, GMC             : 3 warppoints\nFormat settings, Matrix          : Default (H.263)\nMuxing mode                      : Packed bitstream\nCodec ID                         : XVID\nCodec ID/Hint                    : XviD\nDuration                         : 1h 43mn\nBit rate                         : 1 758 Kbps\nWidth                            : 720 pixels\nHeight                           : 304 pixels\nDisplay aspect ratio             : 2.35:1\nFrame rate                       : 25.000 fps\nColor space                      : YUV\nChroma subsampling               : 4:2:0\nBit depth                        : 8 bits\nScan type                        : Progressive\nBits/(Pixel*Frame)               : 0.321\nStream size                      : 1.27 GiB (93%)\nWriting library                  : XviD 64\n\nAudio\nID                               : 1\nFormat                           : MPEG Audio\nFormat version                   : Version 1\nFormat profile                   : Layer 3\nMode                             : Dual mono\nCodec ID                         : 55\nCodec ID/Hint                    : MP3\nDuration                         : 1h 43mn\nBit rate mode                    : Constant\nBit rate                         : 128 Kbps\nChannel(s)                       : 2 channels\nSampling rate                    : 32.0 KHz\nVideo delay                      : 18ms\nStream size                      : 94.8 MiB (7%)\nAlignment                        : Split accross interleaves\nInterleave, duration             : 40 ms (1.00 video frame)\nInterleave, preload duration     : 500 ms\n\n\n\n\n\nVideo Source: Relizlab.....thanks    \nAudio Source: Fury.....thanks\n\n\nGreets:\nDarkScene,HDScene,Noir,CrEwSaDe,blackjesus,ViSiON,HDLiTE,UnKnOwN,IMAGiNE,\nFLAWL3SS,Rx,ELEKTRI4KA,CiNEDUB,BDK,SAFCuk009,HiVE-CM8..... and everybody else we \nrespect.. u know who u are\n\n-------------------------------------------------------------------------------\n                               Post Information\n-------------------------------------------------------------------------------\nEncoded by...........: SiNiSTER\n \nHave sumthing to offer..looking for suppliers... cammers,cams,screeners, audio\nsupplier.. and any pre retail DVD/BR any RC...if u can provide any email us at\n&lt;a class=&quot;__cf_email__&quot; href=&quot;/cdn-cgi/l/email-protection&quot; data-cfemail=&quot;14677d7a7d67607166547c61677c79757d783a7971&quot;&gt;[email&amp;#160;protected]&lt;/a&gt;&lt;script cf-hash='f9e31' type=&quot;text/javascript&quot;&gt;\n/* &lt;![CDATA[ */!function(){try{var t=&quot;currentScript&quot;in document?document.currentScript:function(){for(var t=document.getElementsByTagName(&quot;script&quot;),e=t.length;e--;)if(t[e].getAttribute(&quot;cf-hash&quot;))return t[e]}();if(t&amp;&amp;t.previousSibling){var e,r,n,i,c=t.previousSibling,a=c.getAttribute(&quot;data-cfemail&quot;);if(a){for(e=&quot;&quot;,r=parseInt(a.substr(0,2),16),n=2;a.length-n;n+=2)i=parseInt(a.substr(n,2),16)^r,e+=String.fromCharCode(i);e=document.createTextNode(e),c.parentNode.replaceChild(e,c)}}}catch(u){}}();/* ]]&gt; */&lt;/script&gt;\n&lt;a class=&quot;__cf_email__&quot; href=&quot;/cdn-cgi/l/email-protection&quot; data-cfemail=&quot;082525252525252525252525252525252525252525252525252525252525252525252525252525252525252525252525252525252525252525252525252525252525&quot;&gt;[email&amp;#160;protected]&lt;/a&gt;&lt;script cf-hash='f9e31' type=&quot;text/javascript&quot;&gt;\n/* &lt;![CDATA[ */!function(){try{var t=&quot;currentScript&quot;in document?document.currentScript:function(){for(var t=document.getElementsByTagName(&quot;script&quot;),e=t.length;e--;)if(t[e].getAttribute(&quot;cf-hash&quot;))return t[e]}();if(t&amp;&amp;t.previousSibling){var e,r,n,i,c=t.previousSibling,a=c.getAttribute(&quot;data-cfemail&quot;);if(a){for(e=&quot;&quot;,r=parseInt(a.substr(0,2),16),n=2;a.length-n;n+=2)i=parseInt(a.substr(n,2),16)^r,e+=String.fromCharCode(i);e=document.createTextNode(e),c.parentNode.replaceChild(e,c)}}}catch(u){}}();/* ]]&gt; */&lt;/script&gt;--------------\n                                 Release Notes\n-------------------------------------------------------------------------------\n\nsource was nice just needed to slightly denoise and degrain then adjusted RGB,\nhue and saturation slightly, levels and sharpened.. then i cleaned up Furys cam \naudio then muxed it to my encode... enjoy\n\n\n\n-------------------------------------------------------------------------------\n                                 ScreenShots\n-------------------------------------------------------------------------------\n &lt;a href=&quot;\nhttp://www.pix2links.com/image/nirD3.png&quot; rel=&quot;nofollow&quot; target=&quot;_NEW&quot;&gt;\nhttp://www.pix2links.com/image/nirD3.png&lt;/a&gt; &lt;a href=&quot;\nhttp://www.pix2links.com/image/g0pPD.png&quot; rel=&quot;nofollow&quot; target=&quot;_NEW&quot;&gt;\nhttp://www.pix2links.com/image/g0pPD.png&lt;/a&gt; &lt;a href=&quot;\nhttp://www.pix2links.com/image/EmL8O.png&quot; rel=&quot;nofollow&quot; target=&quot;_NEW&quot;&gt;\nhttp://www.pix2links.com/image/EmL8O.png&lt;/a&gt; &lt;a href=&quot;\nhttp://www.pix2links.com/image/DLQly.png&quot; rel=&quot;nofollow&quot; target=&quot;_NEW&quot;&gt;\nhttp://www.pix2links.com/image/DLQly.png&lt;/a&gt; &lt;a href=&quot;\nhttp://www.pix2links.com/image/paoCv.jpg&quot; rel=&quot;nofollow&quot; target=&quot;_NEW&quot;&gt;\nhttp://www.pix2links.com/image/paoCv.jpg&lt;/a&gt;\n\n-------------------------------------------------------------------------------\n\n[img]http://leetleech.org/images/33506450373550172140.gif[/img]\n\n\n-------------------------------------------------------------------------------\nGenerated with Cool NFO Creator - http://fly.to/coolbeans\n-------------------------------------------------------------------------------","torrent":{"xt":"urn:btih:f2aa923c567aad50b60e4bdb92fb8e5e5c6f1726","amp;dn":"Dolphin+Tale.2011.Cam.Xvid-+SiNiSTER","amp;tr":["udp%3A%2F%2Ftracker.openbittorrent.com%3A80","udp%3A%2F%2Fopen.demonii.com%3A1337","udp%3A%2F%2Ftracker.coppersurfer.tk%3A6969","udp%3A%2F%2Fexodus.desync.com%3A6969"],"infoHash":"f2aa923c567aad50b60e4bdb92fb8e5e5c6f1726","infoHashBuffer":{"type":"Buffer","data":[242,170,146,60,86,122,173,80,182,14,75,219,146,251,142,94,92,111,23,38]},"announce":[],"urlList":[]}}